<?xml version="1.0" encoding="utf-8"?>
<!-- Generator: Adobe Illustrator 16.0.0, SVG Export Plug-In . SVG Version: 6.00 Build 0)  -->
<!DOCTYPE svg PUBLIC "-//W3C//DTD SVG 1.1//EN" "http://www.w3.org/Graphics/SVG/1.1/DTD/svg11.dtd">
<svg version="1.1" id="Layer_1" xmlns="http://www.w3.org/2000/svg" xmlns:xlink="http://www.w3.org/1999/xlink" x="0px" y="0px"
	 width="95px" height="95px" viewBox="0 0 95 95" enable-background="new 0 0 95 95" xml:space="preserve">
<path fill="#FFFFFF" stroke="#013D93" stroke-linecap="round" stroke-linejoin="round" stroke-miterlimit="10" d="M93.785,47.49
	c0,25.71-20.73,46.56-46.29,46.56c-25.56,0-46.28-20.85-46.28-46.56c0-25.7,20.72-46.54,46.28-46.54
	C73.055,0.95,93.785,21.79,93.785,47.49z"/>
<path fill="#013D93" d="M18.975,47.49c0,15.84,12.77,28.69,28.52,28.69s28.521-12.85,28.521-28.69
	c0-15.84-12.771-28.68-28.521-28.68S18.975,31.65,18.975,47.49z"/>
<path fill="#FFFFFF" d="M50.285,22.36c-0.99,0.06-1.891,0.13-2.71,0.23c-0.82,0.1-1.44,0.24-2.23,0.45
	c-0.41,0.12-0.51,0.3-0.71,0.56c-0.2,0.26-0.31,0.61-0.35,1.07v3.52c-0.76,0.1-1.57,0.32-2.45,0.66c-0.87,0.34-2.26,0.81-3.12,1.4
	c-0.85,0.59-1.62,1.3-2.32,2.15c-0.68,0.85-1.22,1.83-1.61,2.96c-0.39,1.12-0.55,2.39-0.48,3.8c0.08,1.58,0.44,2.98,1.1,4.2
	c0.65,1.2,1.65,2.32,2.98,3.33c1.35,1.02,3.08,2,5.21,2.98c1.45,0.641,2.68,1.2,3.68,1.67c1.02,0.48,1.83,0.91,2.449,1.34
	c0.621,0.4,1.08,0.84,1.381,1.301c0.3,0.459,0.47,0.989,0.49,1.6c0.039,0.561-0.101,1.15-0.41,1.73
	c-0.311,0.58-0.82,1.069-1.551,1.489c-0.729,0.42-1.7,0.67-2.919,0.75c-1.06,0.04-2.13-0.03-3.2-0.22c-1.08-0.2-2.08-0.5-3.02-0.85
	c-0.93-0.36-1.71-0.75-2.35-1.181c-0.7-0.399-1.27-0.521-1.74-0.34c-0.46,0.181-0.83,0.601-1.11,1.28
	c-0.26,0.449-0.42,0.92-0.52,1.41c-0.09,0.49-0.13,0.949-0.12,1.39c0.01,0.44,0.06,0.81,0.15,1.12c1.34,0.939,2.24,1.689,3.74,2.27
	c1.52,0.561,3.09,0.87,4.74,0.92V71.4c0.83-0.01,1.62-0.07,2.37-0.16c0.76-0.1,1.77-0.221,2.59-0.36
	c0.61-0.101,1.351-0.26,1.61-0.479c0.279-0.211,0.42-0.5,0.43-0.851v-4.88c1.23-0.24,2.46-0.66,3.67-1.23
	c1.21-0.59,2.27-1.34,3.27-2.289c1-0.95,1.781-2.09,2.351-3.431c0.56-1.329,0.79-2.88,0.72-4.64c-0.08-1.46-0.38-2.689-0.89-3.73
	c-0.5-1.01-1.22-1.899-2.12-2.669c-0.9-0.76-1.98-1.46-3.26-2.13c-1.27-0.66-2.711-1.36-4.32-2.1c-1.5-0.71-2.76-1.36-3.79-1.94
	c-1.03-0.59-1.82-1.19-2.36-1.77c-0.53-0.59-0.83-1.23-0.86-1.93c-0.03-0.3,0.01-0.64,0.13-1.02s0.34-0.75,0.66-1.12
	c0.33-0.37,0.81-0.69,1.43-0.95c0.62-0.26,1.43-0.41,2.41-0.48c0.57-0.03,1.239,0.02,2.01,0.15c0.78,0.13,1.591,0.32,2.44,0.57
	s1.68,0.56,2.48,0.91c0.539-0.04,1-0.2,1.399-0.53c0.409-0.32,0.75-0.72,1.021-1.19c0.279-0.48,0.479-0.97,0.619-1.46
	c0.131-0.49,0.2-0.92,0.2-1.29c-0.399-0.36-0.899-0.71-1.521-1.04c-0.609-0.32-1.26-0.61-1.969-0.86
	c-0.711-0.24-1.121-0.44-1.82-0.57c-0.69-0.15-1.33-0.22-1.9-0.22V22.36z"/>
<path fill-rule="evenodd" clip-rule="evenodd" fill="#013D93" d="M10.255,46.02c0.89,0,1.6,0.72,1.6,1.62
	c0,0.889-0.71,1.61-1.6,1.61c-0.89,0-1.61-0.721-1.61-1.61C8.645,46.74,9.365,46.02,10.255,46.02z"/>
<path fill-rule="evenodd" clip-rule="evenodd" fill="#013D93" d="M84.785,46.02c0.891,0,1.609,0.72,1.609,1.62
	c0,0.889-0.719,1.61-1.609,1.61s-1.609-0.721-1.609-1.61C83.176,46.74,83.895,46.02,84.785,46.02z"/>
<path fill-rule="evenodd" clip-rule="evenodd" fill="#E10A15" d="M7.545,59.71c-0.08-0.12-0.24-0.46-0.33-0.83
	c-0.42-1.569,0.38-3.39,2.77-3.989c2.22-0.561,3.65,0.399,4.11,2.139c0.19,0.711,0.21,1.461,0.13,2.07
	c-0.01,0.631,0.55,1.101,1.42,0.891c0.27-0.51,0.46-1.78,0.05-3.34c-0.77-2.9-3.27-4.84-6.44-4.041
	c-3.76,0.951-4.19,3.92-3.54,6.351c0.18,0.681,0.55,1.47,0.87,1.94c0.32,0.379,0.81,0.819,1.19,1.08l3.35-0.851
	c0.32-0.08,0.38-0.21,0.31-0.47c-0.12-0.46-0.49-1.26-0.72-1.811c-0.35,0.101-0.62,0.221-1.12,0.34L7.545,59.71z"/>
<path fill-rule="evenodd" clip-rule="evenodd" fill="#E10A15" d="M13.085,65.87c1.18-0.21,2.55-0.479,3.48-0.67
	c-0.38,0.409-1.04,1.21-2.31,2.64L13.085,65.87z M13.135,69.02c-0.48,0.521-0.82,0.94-1.36,1.551c-0.3,0.35-0.3,0.51-0.15,0.75
	c0.2,0.34,0.93,1.399,1.2,1.649l0.06-0.03c0.45-0.629,1.11-1.449,2.23-2.819c0.88-1.07,2.85-3.45,3.99-4.94
	c0.14-0.189,0.13-0.359,0.07-0.47c-0.09-0.14-0.7-1.03-1.17-1.56l-0.18,0.209l-9.84,1.36l-0.05,0.04c0.11,0.391,0.48,1.19,0.7,1.561
	c0.15,0.25,0.28,0.32,0.47,0.3c0.49-0.08,1.65-0.29,2.36-0.39L13.135,69.02z"/>
<path fill-rule="evenodd" clip-rule="evenodd" fill="#E10A15" d="M22.415,71.02c0.14,0.09,0.29,0.23,0.41,0.351
	c0.69,0.67,0.79,1.53-0.02,2.33c-0.66,0.649-1.39,0.53-1.59,0.47c-0.24-0.09-0.82-0.63-1.06-0.92L22.415,71.02z M19.215,74.189
	c0.06,0.041,0.09,0.09,0.14,0.141c0.24,0.23,0.4,0.47,0.13,1.29c-0.45,1.37-0.71,2.17-0.77,2.729c-0.08,0.66,0.12,1,0.58,1.45
	c0.52,0.49,1.03,0.88,1.17,0.89l0.06-0.06c0.06-0.67,0.18-1.239,0.55-2.66c0.26-0.94,0.53-1.81,0.52-2.37
	c0.58,0.17,1.96,0.58,3.01-0.449c1.36-1.351,1.14-2.86-0.82-4.75c-0.51-0.48-1.87-1.53-2.19-1.74c-0.28,0.33-0.55,0.59-1.09,1.13
	l-3.68,3.649c-0.92,0.92-1.58,1.551-2.05,1.961c0.28,0.27,1.04,0.979,1.4,1.26c0.21,0.16,0.34,0.199,0.56-0.01L19.215,74.189z"/>
<path fill-rule="evenodd" clip-rule="evenodd" fill="#E10A15" d="M27.695,80.62c0.89-0.78,1.92-1.71,2.61-2.341
	c-0.1,0.541-0.24,1.561-0.56,3.431L27.695,80.62z M29.405,83.279c-0.13,0.681-0.19,1.221-0.33,2.021c-0.07,0.45,0.02,0.58,0.26,0.71
	c0.36,0.19,1.54,0.73,1.91,0.801l0.03-0.051c0.06-0.77,0.18-1.8,0.41-3.54c0.19-1.37,0.6-4.399,0.79-6.25
	c0.02-0.229-0.08-0.37-0.19-0.43c-0.15-0.08-1.15-0.54-1.84-0.74l-0.04,0.271l-7.68,6.16l-0.03,0.049
	c0.31,0.281,1.05,0.781,1.43,0.98c0.27,0.141,0.41,0.131,0.56,0.02c0.38-0.319,1.27-1.09,1.81-1.529L29.405,83.279z"/>
<path fill-rule="evenodd" clip-rule="evenodd" fill="#E10A15" d="M36.315,79.07l-1.33,6.24c-0.27,1.26-0.47,2.119-0.63,2.709
	c0.56,0.131,1.23,0.24,1.51,0.25c0.3,0.021,0.41-0.01,0.47-0.3l0.84-3.94c0.16-0.76,0.34-1.51,0.51-2.859
	c0.39,1.34,0.54,2.189,1.13,3.78c0.81,2.21,1.08,3.05,1.54,4.13c0.09,0.22,0.19,0.3,0.42,0.35c0.5,0.1,1.62,0.12,1.8,0.1l1.41-6.579
	c0.26-1.24,0.46-2.11,0.63-2.75c-0.38-0.08-1.02-0.19-1.55-0.25c-0.23-0.05-0.36-0.011-0.44,0.329l-0.89,4.181
	c-0.16,0.75-0.27,1.181-0.34,2.11c-0.21-0.86-0.52-1.67-0.94-2.87c-0.55-1.61-1.27-3.56-1.6-4.39c-0.12-0.201-0.22-0.33-0.39-0.36
	c-0.29-0.06-1.95-0.32-2.28-0.341l-0.02,0.091L36.315,79.07z"/>
<path fill-rule="evenodd" clip-rule="evenodd" fill="#E10A15" d="M48.385,89.45c0.01,0.229,0.141,0.27,0.4,0.25
	c0.77-0.04,1.439-0.13,1.95-0.24c-0.03-0.3-0.101-0.8-0.16-1.86l-0.38-6.109l2.29-0.131c0.37-0.119,0.84-0.59,0.86-1.6l-5.761,0.33
	c-1.5,0.09-1.94,0.1-2.22,0.061c-0.16,0.209-0.36,0.539-0.53,1.129c-0.1,0.391,0.06,0.521,0.33,0.511l2.74-0.16L48.385,89.45z"/>
<path fill-rule="evenodd" clip-rule="evenodd" fill="#E10A15" d="M56.395,88.4c0.07,0.25,0.181,0.27,0.461,0.199
	c0.39-0.1,1.609-0.449,1.859-0.6c-0.09-0.29-0.25-0.77-0.529-1.811l-1.75-6.619c-0.18-0.69-0.271-0.82-0.57-0.75
	c-0.359,0.1-1.59,0.49-1.9,0.609c0.11,0.271,0.291,0.881,0.551,1.87L56.395,88.4z"/>
<path fill-rule="evenodd" clip-rule="evenodd" fill="#E10A15" d="M68.115,82.59c-0.82,0.46-3.62,1.76-4.109,1.86
	c0.25-2.63,0.559-7.021,0.479-7.65c-0.101-0.62-0.16-0.86-0.33-1.3l-5.16,2.391c-0.45,0.209-0.739,0.31-0.97,0.329
	c-0.061,0.22-0.15,0.58-0.11,1.091c0.04,0.439,0.271,0.67,1.11,0.279l3.279-1.52c-0.01,1.189-0.359,5.64-0.899,8.82
	c0.08,0.119,0.2,0.189,0.39,0.26c0.811-0.291,2.66-1.101,3.77-1.621c1.671-0.77,2.131-1.039,2.281-1.1
	c0.16-0.16,0.469-1.02,0.289-1.82L68.115,82.59z"/>
<path fill-rule="evenodd" clip-rule="evenodd" fill="#E10A15" d="M70.695,77.72c-0.42-1.1-0.939-2.38-1.29-3.229
	c0.479,0.289,1.399,0.779,3.069,1.75L70.695,77.72z M73.855,77.12c0.6,0.36,1.09,0.62,1.8,1.03c0.409,0.229,0.56,0.199,0.78,0.02
	c0.31-0.26,1.25-1.141,1.449-1.45l-0.039-0.04c-0.721-0.33-1.65-0.82-3.23-1.66c-1.23-0.66-3.971-2.14-5.67-2.979
	c-0.21-0.101-0.381-0.06-0.48,0.021c-0.13,0.109-0.93,0.85-1.369,1.399l0.239,0.14l3.091,9.221l0.039,0.05
	c0.381-0.181,1.12-0.67,1.461-0.95c0.219-0.189,0.27-0.33,0.219-0.51c-0.18-0.45-0.59-1.54-0.81-2.2L73.855,77.12z"/>
<path fill-rule="evenodd" clip-rule="evenodd" fill="#E10A15" d="M74.335,67.9c0.08-0.141,0.19-0.36,0.421-0.721
	c1.079-1.65,2.729-2.14,4.659-0.939c2.71,1.71,1.96,3.67,1.399,4.52c-0.17,0.26-0.359,0.52-0.629,0.801L74.335,67.9z M80.016,74.13
	c0.74-0.75,1.33-1.51,1.97-2.479c1.739-2.65,1.55-5.66-1.29-7.44c-1.721-1.08-4.53-1.84-7.051,2c-0.77,1.17-1.42,2.58-1.58,2.97
	c0.341,0.2,0.601,0.34,1.49,0.9L80.016,74.13z"/>
<path fill-rule="evenodd" clip-rule="evenodd" fill="#E10A15" d="M79.395,56.98c0.5-1.82,2.48-2.17,4.32-1.69
	c2.15,0.569,3.23,1.79,2.811,3.31c-0.4,1.45-2.01,2.28-4.4,1.65c-2.39-0.63-3.07-2.03-2.73-3.26V56.98z M78.025,56.43
	c-0.85,3.08,0.83,5.45,3.67,6.19c2.359,0.62,5.26-0.06,6.199-3.47c0.861-3.131-0.989-5.461-3.699-6.17
	c-2.78-0.73-5.37,0.529-6.17,3.43V56.43z"/>
<path fill-rule="evenodd" clip-rule="evenodd" fill="#003D92" d="M8.195,32.28c1.34,1.18,3.59,3.03,5.03,4.23h-6.21
	c-0.72-0.02-0.84,0.04-0.9,0.32c-0.31,0.87-0.38,1.57-0.45,2.05l0.24,0.05c3.32,1.8,7,3.73,8.59,4.59c0.22-0.2,0.54-1.11,0.72-1.63
	c0.06-0.17,0-0.29-0.16-0.37c-1.84-0.91-5.01-2.41-6.66-3.14c2.23,0.12,6.67,0.27,7.83,0.33c0.14-0.39,0.23-0.84,0.28-1.19
	c0.06-0.42-0.01-0.6-0.32-0.84c-2.56-1.97-4.59-3.51-5.71-4.3l3.5,0.89c1.78,0.46,2.71,0.7,3.48,0.89c0.35,0.09,0.51-0.11,0.58-0.33
	c0.12-0.34,0.47-1.54,0.5-1.86c-0.78-0.14-1.96-0.38-3.64-0.74l-5.83-1.22c-0.44-0.09-0.56-0.03-0.62,0.14
	c-0.15,0.43-0.51,1.74-0.44,2.06L8.195,32.28z"/>
<path fill-rule="evenodd" clip-rule="evenodd" fill="#003D92" d="M19.155,31.17l0.41-0.01c0.3-0.27,0.99-1.05,1.91-2.29
	c0.79-1.05,1.22-1.69,1.33-1.91c0.05-0.52-0.11-1.07-0.68-1.72h-0.04c-0.48,0.72-1.28,1.79-1.65,2.29
	c-0.33,0.44-0.56,0.69-0.83,0.98l-2.21-1.68l1.41-1.89c0.35-0.47,0.36-0.89-0.63-1.89l-2.09,2.79l-1.96-1.5l0.86-1.15
	c0.43-0.58,0.83-1.11,0.91-1.4c-0.07-0.3-0.22-0.72-0.89-1.37l-2.35,3.14c-0.45,0.64-0.89,1.39-1.12,1.88
	c0.61,0.41,1.04,0.73,1.66,1.2L19.155,31.17z"/>
<path fill-rule="evenodd" clip-rule="evenodd" fill="#003D92" d="M22.425,23.91c1.81,1.97,1.79,2.68,0.97,3.76l0.01,0.06
	c0.5,0.35,1.17,0.43,1.57,0.07c0.51-0.48,0.94-1.35,0.95-2.13c0.01-1.02-0.35-1.87-1.77-3.41l-4.65-5.04
	c-0.48-0.51-0.63-0.61-0.87-0.39c-0.28,0.27-1.07,1.12-1.42,1.51c0.23,0.19,0.69,0.67,1.43,1.47L22.425,23.91z"/>
<path fill-rule="evenodd" clip-rule="evenodd" fill="#003D92" d="M26.515,12.75c1.72-0.99,3.43,0.2,4.41,1.93
	c1.14,2.01,1.01,3.72-0.44,4.55c-1.38,0.79-3.17,0.23-4.44-2.01c-1.26-2.23-0.71-3.79,0.45-4.46L26.515,12.75z M25.925,11.33
	c-2.93,1.68-3.48,4.7-1.97,7.36c1.25,2.21,3.87,3.84,7.12,1.97c2.97-1.72,3.37-4.83,1.93-7.37c-1.48-2.6-4.31-3.56-7.06-1.97
	L25.925,11.33z"/>
<path fill-rule="evenodd" clip-rule="evenodd" fill="#003D92" d="M36.785,8.62c0.16-0.08,0.37-0.12,0.54-0.16
	c0.98-0.23,1.8,0.18,2.07,1.34c0.22,0.95-0.3,1.52-0.47,1.66c-0.21,0.17-1.01,0.37-1.4,0.41L36.785,8.62z M37.845,13.24
	c0.07-0.04,0.12-0.03,0.2-0.05c0.33-0.08,0.65-0.08,1.22,0.62c0.97,1.18,1.54,1.87,2.01,2.24c0.55,0.44,0.95,0.47,1.62,0.31
	c0.72-0.17,1.35-0.4,1.44-0.52l-0.02-0.08c-0.56-0.43-1.01-0.86-2.07-2.01c-0.69-0.76-1.32-1.5-1.83-1.8
	c0.48-0.41,1.61-1.39,1.27-2.9c-0.45-1.97-1.92-2.63-4.69-1.99c-0.71,0.17-2.4,0.76-2.76,0.93c0.13,0.43,0.22,0.82,0.39,1.59
	l1.22,5.33c0.31,1.33,0.51,2.27,0.62,2.91c0.4-0.09,1.45-0.35,1.9-0.5c0.26-0.1,0.37-0.19,0.29-0.51L37.845,13.24z"/>
<path fill-rule="evenodd" clip-rule="evenodd" fill="#003D92" d="M47.885,15.78c-0.03,0.24,0.08,0.3,0.371,0.34
	c0.479,0.06,1.719,0.17,2.02,0.13c0.02-0.33,0.05-0.77,0.189-1.92l0.85-6.69c0.181-0.01,0.391,0.02,0.5,0.03
	c0.931,0.12,1.721,0.73,1.551,2.06c-0.189,1.48-1.15,1.74-1.891,1.64c-0.16-0.02-0.35-0.06-0.43-0.08
	c-0.06,0.63,0.211,1.22,0.48,1.39c0.21,0.14,0.609,0.21,0.83,0.24c0.939,0.1,3.13-0.46,3.439-2.9c0.311-2.46-1.35-3.56-3.9-3.88
	c-1.279-0.17-2.42-0.2-2.83-0.19c-0.039,0.79-0.119,1.45-0.219,2.23L47.885,15.78z"/>
<path fill-rule="evenodd" clip-rule="evenodd" fill="#003D92" d="M60.885,9.75c0.17,0.03,0.371,0.11,0.541,0.18
	c0.93,0.36,1.379,1.17,0.949,2.28c-0.35,0.91-1.1,1.09-1.32,1.11c-0.26,0.02-1.039-0.27-1.379-0.46L60.885,9.75z M59.165,14.17
	c0.08,0.01,0.12,0.04,0.2,0.07c0.311,0.13,0.58,0.3,0.66,1.21c0.13,1.53,0.22,2.42,0.4,2.99c0.199,0.68,0.52,0.93,1.159,1.18
	c0.69,0.27,1.341,0.44,1.479,0.39l0.031-0.07c-0.221-0.69-0.351-1.3-0.58-2.84c-0.15-1.02-0.26-1.99-0.5-2.53
	c0.619-0.07,2.109-0.24,2.67-1.68c0.729-1.88-0.11-3.26-2.76-4.31c-0.681-0.26-2.41-0.74-2.801-0.8c-0.13,0.43-0.279,0.8-0.561,1.54
	l-1.979,5.09c-0.5,1.28-0.86,2.17-1.13,2.76c0.38,0.15,1.4,0.53,1.85,0.66c0.271,0.07,0.41,0.06,0.53-0.25L59.165,14.17z"/>
<path fill-rule="evenodd" clip-rule="evenodd" fill="#003D92" d="M63.465,20.1l0.021,0.42c0.271,0.29,1.06,0.97,2.31,1.87
	c1.07,0.77,1.711,1.19,1.93,1.29c0.521,0.03,1.061-0.14,1.69-0.73v-0.04c-0.729-0.46-1.81-1.24-2.31-1.6
	c-0.45-0.33-0.7-0.55-0.99-0.82l1.609-2.27l1.91,1.38c0.471,0.34,0.891,0.34,1.86-0.68l-2.819-2.03l1.43-2.02l1.17,0.85
	c0.58,0.41,1.119,0.8,1.41,0.87c0.289-0.07,0.709-0.23,1.34-0.92l-3.17-2.29c-0.65-0.44-1.4-0.86-1.9-1.08
	c-0.38,0.62-0.689,1.06-1.15,1.69L63.465,20.1z"/>
<path fill-rule="evenodd" clip-rule="evenodd" fill="#003D92" d="M75.555,29.63c-0.35-0.23-1.08-0.64-1.799-1.52
	c-1.57-1.89-1.171-3.96,0.369-5.26c1.891-1.58,3.7-1.23,4.9,0.22c0.5,0.6,0.8,1.3,0.93,1.68c0.301,0.7,1.09,0.61,1.641,0.13
	c0.069-0.4-0.351-1.7-1.311-2.85c-2.07-2.51-5.29-3.22-7.9-1.03c-2.39,2.01-2.699,4.9-0.279,7.81c0.68,0.83,1.47,1.3,1.93,1.44
	c0.43,0.02,0.88-0.1,1.55-0.54L75.555,29.63z"/>
<path fill-rule="evenodd" clip-rule="evenodd" fill="#003D92" d="M74.375,31.37c-0.24,0.14-0.23,0.26-0.09,0.52
	c0.2,0.37,0.88,1.5,1.09,1.72c0.27-0.17,0.73-0.46,1.721-1.01l6.34-3.52c0.649-0.36,0.77-0.48,0.609-0.77
	c-0.18-0.34-0.9-1.47-1.1-1.75c-0.26,0.18-0.83,0.52-1.78,1.04L74.375,31.37z"/>
<path fill-rule="evenodd" clip-rule="evenodd" fill="#003D92" d="M86.045,37.07c0.52,1.93-1.06,3.29-2.96,3.81
	c-2.22,0.61-3.829,0.05-4.271-1.57c-0.409-1.54,0.58-3.15,3.051-3.82c2.47-0.68,3.82,0.25,4.18,1.56V37.07z M87.564,36.85
	c-0.889-3.29-3.649-4.58-6.579-3.77c-2.44,0.66-4.671,2.81-3.69,6.44c0.9,3.34,3.801,4.51,6.59,3.74c2.881-0.78,4.51-3.31,3.68-6.39
	V36.85z"/>
</svg>
